<svg width="24" height="24" viewBox="0 0 24 24" fill="none" xmlns="http://www.w3.org/2000/svg">
    <path d="M12 14.4545C13.3556 14.4545 14.4546 13.3556 14.4546 12C14.4546 10.6443 13.3556 9.54541 12 9.54541C10.6444 9.54541 9.54547 10.6443 9.54547 12C9.54547 13.3556 10.6444 14.4545 12 14.4545Z" stroke="white" stroke-width="1.63636" stroke-miterlimit="10" stroke-linecap="round" stroke-linejoin="round"/>
    <path d="M18.0545 14.4545C17.9456 14.7013 17.9131 14.9751 17.9613 15.2405C18.0094 15.5059 18.1359 15.7508 18.3245 15.9436L18.3736 15.9927C18.6807 16.2998 18.8532 16.7162 18.8532 17.1505C18.8532 17.5847 18.6807 18.0011 18.3736 18.3082C18.0666 18.6152 17.6501 18.7877 17.2159 18.7877C16.7817 18.7877 16.3652 18.6152 16.0582 18.3082L16.0091 18.2591C15.8178 18.0738 15.5765 17.9488 15.3148 17.8994C15.0532 17.85 14.7828 17.8784 14.5372 17.9812C14.2916 18.084 14.0815 18.2566 13.933 18.4776C13.7845 18.6986 13.7041 18.9583 13.7018 19.2245V19.3636C13.7018 19.7976 13.5294 20.2138 13.2225 20.5207C12.9157 20.8276 12.4994 21 12.0655 21C11.6315 21 11.2152 20.8276 10.9084 20.5207C10.6015 20.2138 10.4291 19.7976 10.4291 19.3636V19.29C10.4228 19.0192 10.3351 18.7565 10.1775 18.5362C10.0199 18.3159 9.79969 18.1481 9.54545 18.0545C9.29868 17.9456 9.02493 17.9131 8.75952 17.9613C8.4941 18.0094 8.24919 18.1359 8.05636 18.3245L8.00727 18.3736C7.70022 18.6807 7.28378 18.8532 6.84955 18.8532C6.41531 18.8532 5.99887 18.6807 5.69182 18.3736C5.38477 18.0666 5.21227 17.6501 5.21227 17.2159C5.21227 16.7817 5.38477 16.3652 5.69182 16.0582L5.74091 16.0091C5.92616 15.8178 6.05123 15.5765 6.10063 15.3148C6.15002 15.0532 6.12157 14.7828 6.01879 14.5372C5.91601 14.2916 5.74343 14.0815 5.52242 13.933C5.30142 13.7845 5.0417 13.7041 4.77545 13.7018H4.63636C4.20237 13.7018 3.78616 13.5294 3.47928 13.2225C3.1724 12.9157 3 12.4994 3 12.0655C3 11.6315 3.1724 11.2152 3.47928 10.9084C3.78616 10.6015 4.20237 10.4291 4.63636 10.4291H4.71C4.98081 10.4228 5.24346 10.3351 5.46379 10.1775C5.68412 10.0199 5.85195 9.79969 5.94545 9.54545C6.05437 9.29868 6.08686 9.02493 6.03873 8.75952C5.99061 8.4941 5.86408 8.24919 5.67545 8.05636L5.62636 8.00727C5.31932 7.70022 5.14682 7.28378 5.14682 6.84955C5.14682 6.41531 5.31932 5.99887 5.62636 5.69182C5.93341 5.38477 6.34986 5.21227 6.78409 5.21227C7.21832 5.21227 7.63477 5.38477 7.94182 5.69182L7.99091 5.74091C8.18374 5.92953 8.42865 6.05606 8.69406 6.10419C8.95948 6.15231 9.23322 6.11982 9.48 6.01091H9.54545C9.78745 5.90719 9.99383 5.73498 10.1392 5.51547C10.2846 5.29596 10.3626 5.03873 10.3636 4.77545V4.63636C10.3636 4.20237 10.536 3.78616 10.8429 3.47928C11.1498 3.1724 11.566 3 12 3C12.434 3 12.8502 3.1724 13.1571 3.47928C13.464 3.78616 13.6364 4.20237 13.6364 4.63636V4.71C13.6387 4.97625 13.7191 5.23596 13.8676 5.45697C14.016 5.67798 14.2261 5.85056 14.4717 5.95334C14.7174 6.05611 14.9877 6.08457 15.2494 6.03517C15.511 5.98578 15.7524 5.86071 15.9436 5.67545L15.9927 5.62636C16.2998 5.31932 16.7162 5.14682 17.1505 5.14682C17.5847 5.14682 18.0011 5.31932 18.3082 5.62636C18.6152 5.93341 18.7877 6.34986 18.7877 6.78409C18.7877 7.21832 18.6152 7.63477 18.3082 7.94182L18.2591 7.99091C18.0705 8.18374 17.9439 8.42865 17.8958 8.69406C17.8477 8.95948 17.8802 9.23322 17.9891 9.48V9.54545C18.0928 9.78745 18.265 9.99383 18.4845 10.1392C18.704 10.2846 18.9613 10.3626 19.2245 10.3636H19.3636C19.7976 10.3636 20.2138 10.536 20.5207 10.8429C20.8276 11.1498 21 11.566 21 12C21 12.434 20.8276 12.8502 20.5207 13.1571C20.2138 13.464 19.7976 13.6364 19.3636 13.6364H19.29C19.0267 13.6374 18.7695 13.7154 18.55 13.8608C18.3305 14.0062 18.1583 14.2126 18.0545 14.4545V14.4545Z" stroke="white" stroke-width="1.63636" stroke-miterlimit="10" stroke-linecap="round" stroke-linejoin="round"/>
</svg>
