<svg width="24" height="24" viewBox="0 0 24 24" fill="none" xmlns="http://www.w3.org/2000/svg">
    <path d="M16.5455 20.3636V18.5454C16.5455 17.581 16.1623 16.6561 15.4804 15.9741C14.7984 15.2922 13.8735 14.9091 12.9091 14.9091H5.63636C4.67194 14.9091 3.74702 15.2922 3.06507 15.9741C2.38312 16.6561 2 17.581 2 18.5454L2 20.3636" stroke="white" stroke-width="1.81818" stroke-miterlimit="10" stroke-linecap="round" stroke-linejoin="round"/>
    <path d="M9.27272 11.2727C11.281 11.2727 12.9091 9.64467 12.9091 7.63636C12.9091 5.62806 11.281 4 9.27272 4C7.26441 4 5.63635 5.62806 5.63635 7.63636C5.63635 9.64467 7.26441 11.2727 9.27272 11.2727Z" stroke="white" stroke-width="1.81818" stroke-miterlimit="10" stroke-linecap="round" stroke-linejoin="round"/>
    <path d="M22 20.3636V18.5454C21.9994 17.7397 21.7312 16.957 21.2376 16.3202C20.744 15.6835 20.0529 15.2286 19.2727 15.0272" stroke="white" stroke-width="1.81818" stroke-miterlimit="10" stroke-linecap="round" stroke-linejoin="round"/>
    <path d="M15.6364 4.11816C16.4186 4.31841 17.1119 4.77331 17.607 5.41114C18.1021 6.04897 18.3709 6.83344 18.3709 7.64089C18.3709 8.44834 18.1021 9.23282 17.607 9.87064C17.1119 10.5085 16.4186 10.9634 15.6364 11.1636" stroke="white" stroke-width="1.81818" stroke-miterlimit="10" stroke-linecap="round" stroke-linejoin="round"/>
</svg>
